<svg preserveAspectRatio="none" overflow="visible" style="display: block;" width="187.409" height="87.6626" viewBox="0 0 187.409 87.6626" fill="none" xmlns="http://www.w3.org/2000/svg">
<g id="Group 5" opacity="0.4">
<path id="Vector" d="M65.3827 20.814C66.3293 14.4531 69.1143 9.96993 74.2951 6.0827C80.8862 1.20858 89.1373 -0.8605 97.2457 0.32804C111.323 2.43181 120.028 14.3172 115.22 28.215C117.175 27.4592 118.873 26.8037 120.913 26.3342C135.385 23.0037 151.459 33.0045 146.437 49.374C153.683 48.2584 162.067 48.6225 168.315 52.8725C173.301 56.8492 174.588 61.0146 172.238 66.9437C177.889 65.6689 190.517 65.9652 186.704 75.7777C183.773 83.3219 167.579 84.007 161.202 81.7667C158.893 80.9562 156.595 80.1444 154.092 78.9318L153.982 79.1241C151.861 82.7393 148.568 84.5484 144.534 85.3463C131.958 87.8336 121.665 89.7957 110.477 83.0571C99.2201 87.0646 83.0227 86.739 73.2965 79.0187C67.892 81.9389 62.5329 82.8969 56.4087 83.4493C46.7116 84.3237 23.5276 84.3928 16.1422 78.2919C11.4899 78.5794 6.40631 79.8617 2.24674 77.3381C-0.272339 75.8094 -0.719754 72.9571 1.14119 70.7197C3.63758 67.7169 7.6545 67.4861 11.2402 67.1768C8.12136 60.6557 10.5788 53.8124 14.6898 48.4675C20.9372 41.049 29.5709 39.5781 38.3731 42.9482C35.5525 25.3726 49.0394 14.8457 65.3827 20.814Z" fill="#FEFEFE"/>
<path id="Vector_2" d="M55.3128 46.546C67.3052 56.5322 81.3401 56.3282 93.4492 46.6679C100.057 67.3778 122.466 72.1965 137.143 56.1866C138.242 57.6452 139.37 59.249 140.654 60.539C150.542 70.4763 165.514 67.4142 168.315 52.8725C173.301 56.8492 174.588 61.0146 172.238 66.9437C177.889 65.6689 190.517 65.9653 186.704 75.7777C183.773 83.322 167.579 84.007 161.202 81.7668C158.893 80.9562 156.595 80.1444 154.092 78.9319L153.982 79.1241C151.861 82.7394 148.568 84.5484 144.534 85.3463C131.958 87.8336 121.665 89.7957 110.477 83.0571C99.2201 87.0646 83.0227 86.7391 73.2965 79.0188C67.892 81.9389 62.5329 82.8969 56.4087 83.4494C46.7116 84.3238 23.5276 84.3928 16.1422 78.2919C11.4899 78.5795 6.40631 79.8617 2.24674 77.3381C-0.272339 75.8095 -0.719754 72.9571 1.14119 70.7198C3.63758 67.717 7.6545 67.4861 11.2402 67.1768C8.12136 60.6557 10.5788 53.8124 14.6898 48.4675C16.6836 58.0806 25.3108 60.6165 33.9379 60.8983C44.306 61.2367 52.2394 56.6923 55.3128 46.546Z" fill="#D5F8FD"/>
<path id="Vector_3" d="M129.974 77.5777C135.288 77.1893 140.067 77.8646 145.264 77.4039C142.421 79.0156 141.25 79.7006 138.008 80.2939C131.984 81.1975 128.23 80.0624 122.518 78.2618L129.974 77.5777Z" fill="#FEFEFE"/>
<path id="Vector_4" d="M46.4004 73.3744C49.4447 73.1996 54.9691 73.5134 58.289 73.5883C54.8233 75.2907 53.8442 75.6976 50.025 76.1752C44.5167 76.2056 42.3024 76.0098 37.1508 74.0792L46.4004 73.3744Z" fill="#FEFEFE"/>
<path id="Vector_5" d="M72.1197 70.4286C74.3988 70.097 78.0397 70.1884 80.3415 70.2286C78.0137 71.0822 76.4186 71.5462 74.013 72.1696C70.5148 72.7243 68.6993 72.4089 65.24 71.9232C67.8661 71.2138 69.445 70.8245 72.1197 70.4286Z" fill="#FEFEFE"/>
<path id="Vector_6" d="M57.7314 66.8484C58.6197 66.7084 61.4111 66.6827 62.4486 66.6464C58.7883 68.3946 57.8092 68.7522 53.802 69.2245C52.2393 69.326 50.7221 69.0858 49.1594 68.911C52.1842 67.7948 54.5736 67.3551 57.7314 66.8484Z" fill="#FEFEFE"/>
</g>
</svg>
