<svg preserveAspectRatio="none" overflow="visible" style="display: block;" width="116.624" height="60.5217" viewBox="0 0 116.624 60.5217" fill="none" xmlns="http://www.w3.org/2000/svg">
<g id="Group 6" opacity="0.4">
<path id="Vector" d="M21.8655 28.9434C22.205 25.8991 22.4883 23.6199 23.4515 20.7215C27.6617 8.04829 39.7568 -1.48983 53.4364 0.192796C60.6091 1.1103 67.1367 4.803 71.6211 10.4734C74.2226 13.7997 75.9337 17.7356 76.5935 21.9081C82.1021 20.1963 86.8857 19.6322 92.2951 22.4982C96.0553 24.4694 98.8613 27.8735 100.078 31.9423C100.819 34.4031 100.778 36.1408 100.646 38.6793C105.612 38.4167 110.42 38.0049 114.393 41.6328C119.177 47.7506 115.677 51.962 109.468 54.5297C97.9503 59.2923 87.6953 59.02 76.2531 54.5006C59.6356 62.9753 43.7157 62.6673 27.852 52.5359C20.1463 54.9609 11.0263 57.4541 4.02679 51.774C0.182843 48.6551 -0.993961 43.7791 0.863968 39.2272C1.661 37.2723 2.69667 35.9722 4.00313 34.3674C9.23186 29.4686 14.8562 28.0843 21.8655 28.9434Z" fill="#FEFEFE"/>
<path id="Vector_2" d="M4.00313 34.3675C5.08296 35.8459 7.98853 36.812 9.74313 37.0616C17.6658 38.1834 25.1578 35.473 29.8326 28.8722C35.9319 34.7047 42.7535 39.0912 51.474 38.8156C58.0268 38.6049 62.9626 36.0437 66.7785 30.7267C68.7555 35.3952 70.0552 37.4929 73.5975 41.1726C82.7151 50.6394 106.91 55.7716 114.393 41.6329C119.177 47.7507 115.677 51.9622 109.468 54.5299C97.9503 59.2925 87.6953 59.0201 76.2531 54.5007C59.6356 62.9755 43.7157 62.6674 27.852 52.536C20.1463 54.9611 11.0263 57.4542 4.02679 51.7741C0.182843 48.6553 -0.993961 43.7792 0.863968 39.2274C1.661 37.2724 2.69667 35.9723 4.00313 34.3675Z" fill="#EAFBFE"/>
<path id="Vector_3" d="M40.0866 50.354C41.339 50.3086 58.0962 53.0417 58.5031 53.314L58.1008 53.849C51.3398 55.7261 45.5978 54.7405 40.0866 50.354Z" fill="#FEFEFE"/>
<path id="Vector_4" d="M51.0418 45.9157C53.5385 45.786 62.271 45.9644 64.4092 46.6938L64.3683 47.2223C63.8182 47.3844 63.2618 47.5238 62.7 47.6405C58.6279 48.4737 54.5961 48.3311 51.0418 45.9157Z" fill="#FEFEFE"/>
</g>
</svg>
