<svg width="194" height="73" viewBox="0 0 194 73" fill="none" xmlns="http://www.w3.org/2000/svg">
<g id="arrow">
<path d="M122.368 4.33008 C122.72179692961649 5.340959517157525, 124.27758271088078 7.518666926429718, 125.5350134867616 9.835919469182938 M122.54247568895295 4.246061447976082 C122.7286778741693 4.941034026879706, 124.05424151026364 7.7155719363671915, 125.53654654150363 9.948004921751656 M125.835 10.0849 C127.43883576287702 12.506609836500138, 128.74291769816355 14.148408052199335, 130.22040033103897 16.44457958268449 M125.66088771404698 10.310744762008637 C127.38569559531565 12.527581482105887, 128.41522273334024 14.26476106605474, 130.13038295676466 16.205905986940305 M130.415 16.3652 C132.24088139011337 19.367882163136453, 134.49259675969554 21.659487264364213, 136.80653872026878 23.878266093128175 M130.50943812491371 16.18792771028802 C132.57050113441701 18.862559443962017, 134.36961949043626 21.76372284958903, 136.72469880985378 23.333950450604597 M136.622 23.6097 C138.83301742948964 25.974338894527406, 140.54177773239093 28.71342024163529, 142.213063053865 31.764673116724936 M136.58998397721723 23.764264252775163 C138.95894455861207 26.212788763278166, 140.175392200253 28.817398411237633, 142.0577025663471 31.368580140137112 M142.091 31.659 C143.09097203041986 33.77218039688393, 143.47263798441364 35.879145631473506, 143.43187726249172 38.34603773843572 M142.32977685787156 31.65670631818101 C143.32849214597698 34.06567845494691, 143.477398742429 35.67569578933064, 143.82693765275832 38.326136296992935 M143.503 38.3117 C143.2787428735681 40.82575000516698, 140.43099941517784 43.27527005008981, 138.59077980806308 45.814115011971445 M143.3220878850408 38.50299880396649 C143.58319513552544 41.24088694792334, 140.13636320754048 42.96089118626062, 138.84525120653865 45.39299082668964 M138.633 45.625 C135.8452221708484 49.94140902308747, 134.55095345534755 52.552243082445116, 133.67108868374305 55.037852959793064 M138.789832708139 45.896654576342556 C135.87265847720857 49.90935333522503, 134.53084464710113 52.679960218482655, 133.79576282607673 55.0033775488073 M133.752 55.308 C132.64082166542485 57.50401172310636, 131.25348606683687 59.61083228225037, 130.57626641394572 62.0345675731115 M133.50319650783018 55.51462947027013 C132.9960095819151 57.599928623932044, 131.5082058235621 59.778209166514316, 130.0628333206987 62.2757234469885 M130.28 61.9585 C128.77809763171152 64.53078034643455, 127.4991027428098 66.14359817196652, 126.15154505433516 68.94511781188771 M130.04825899602847 61.988497289460156 C128.60486707147118 64.17840698518697, 127.3345819603121 66.16090622493569, 126.5190334606683 68.70797991893832 M126.29 68.9038 C126.10337587537244 69.43698010303304, 125.42045350768043 69.8992692428045, 124.67655119182541 71.10218060483261 M126.04661941589788 68.67962480637357 C125.64230952864047 69.7333570041949, 125.60984949167724 69.97281275238934, 124.40011272718664 70.60105402642432" stroke="white" stroke-width="6" fill="none" stroke-linecap="round" stroke-linejoin="round"/>
<path d="M124.585 3 C125.67479692961649 3.1285895171575246, 128.9945827108808 3.537276926429719, 131.73801348676162 4.446889469182938 M124.75947568895295 2.9159814479760824 C125.68167787416931 2.7286640268797058, 128.77124151026365 3.7341819363671918, 131.73954654150364 4.5589749217516555 M132.038 4.69587 C134.47083576287702 5.741579836500138, 136.42191769816353 6.176748052199334, 139.23240033103897 7.433209582684487 M131.863887714047 4.921714762008637 C134.41769559531565 5.762551482105888, 136.09422273334022 6.293101066054739, 139.14238295676466 7.194535986940302 M139.427 7.35383 C142.20388139011337 8.810012163136452, 146.01959675969556 10.291587264364212, 148.62953872026876 11.688066093128175 M139.52143812491371 7.1765577102880185 C142.533501134417 8.304689443962015, 145.89661949043628 10.395822849589027, 148.54769880985376 11.143750450604594 M148.445 11.4195 C150.24401742948965 12.421838894527406, 152.80477773239093 13.497120241635292, 154.40606305386498 14.260673116724938 M148.4129839772172 11.574064252775162 C150.36994455861208 12.660288763278164, 152.438392200253 13.601098411237635, 154.2507025663471 13.864580140137113 M154.284 14.155 C155.77597203041987 14.927680396883936, 157.50963798441364 15.927845631473511, 159.53087726249174 16.554737738435715 M154.52277685787155 14.152706318181007 C156.01349214597698 15.221178454946914, 157.514398742429 15.724395789330638, 159.92593765275834 16.534836296992935 M159.602 16.5204 C161.79974287356808 17.238750005166978, 167.42299941517783 20.211470050089805, 171.89877980806307 21.881315011971445 M159.4210878850408 16.71169880396649 C162.10419513552543 17.65388694792334, 167.12836320754047 19.897091186260617, 172.15325120653864 21.460190826689637 M171.941 21.6922 C174.6082221708484 22.864309023087472, 177.67295345534757 25.063643082445115, 180.80208868374305 26.74025295979306 M172.09783270813898 21.963854576342552 C174.63565847720858 22.832253335225026, 177.65284464710115 25.191360218482654, 180.92676282607673 26.7057775488073 M180.883 27.0104 C183.14182166542486 28.222811723106357, 185.18448606683688 29.471032282250373, 187.8302664139457 30.633367573111506 M180.63419650783018 27.217029470270127 C183.4970095819151 28.318728623932042, 185.4392058235621 29.638409166514315, 187.3168333206987 30.8745234469885 M187.534 30.5573 C188.8650976317115 31.400680346434566, 189.7071027428098 31.716398171966524, 190.13554505433515 32.44741781188771 M187.30225899602846 30.587297289460153 C188.69186707147117 31.048306985186972, 189.54258196031208 31.733706224935688, 190.5030334606683 32.21027991893832 M190.274 32.4061 C190.68937587537243 32.54088010303303, 190.00045350768045 33.1001692428045, 189.78255119182543 33.70668060483262 M190.0306194158979 32.181924806373566 C190.22830952864047 32.83725700419489, 190.18984949167725 33.17371275238935, 189.50611272718663 33.20555402642433 M189.691 33.4391 C188.34737673332168 34.61979417161271, 185.92295791711285 35.299316954725235, 184.2119309445806 36.48282584940716 M189.9540215418525 33.15194676222131 C188.34584424712415 34.595152930223385, 186.02559481292124 35.06491452158037, 183.95896806239244 35.981539745276606 M183.929 36.3232 C181.33984007372334 37.78029869963452, 178.96943005802112 39.278430736439674, 176.63497496201472 40.52549141182229 M183.6769786795564 36.60204086696431 C181.0693759815609 37.60810592660252, 178.73208303024526 39.30005296927635, 176.61361261936185 40.413849215387735 M176.467 40.6061 C172.85015029599145 42.52083780330941, 167.61670354856923 45.49399298540875, 164.40024342479182 46.032958127038924 M176.66839866592363 40.52110279931351 C172.8961756975269 42.71299532072488, 167.67222671078798 45.722556446307344, 164.45514451210852 46.1133439907128 M164.57 46.1526 C162.1609613307901 46.88619856759831, 159.14125653817132 48.43495406784341, 156.51119104482606 49.839224798768015 M164.42820886911824 45.95292120672986 C161.7698493215358 46.45839985404555, 159.66955463262553 48.952271467565936, 156.25171556558368 49.93836628926936 M156.591 49.6973 C154.04782164003328 50.94848604621217, 151.64283670749143 51.27020731870457, 149.41479206528143 52.26118319947049 M156.60498118855432 49.58325270542428 C153.75630649103877 50.510728932082095, 151.88918053477164 51.5530939620072, 149.44050006567593 52.052070243137514 M149.644 52.3574 C146.58679921688514 53.49619826161191, 144.90008626844363 54.4172640417032, 138.81016526057198 58.4320930703573 M149.7845570548959 52.386996880357714 C146.9687293044245 53.953453874414606, 145.03577186717746 54.61680052264873, 138.8786635092115 58.34105314845983 M138.797 58.3318 C135.79410658575966 60.080301205008475, 133.86516696419193 61.556428509300204, 132.22119893636182 62.58445712138936 M138.6986724300571 58.5616712852411 C136.23954107101915 59.98833916468564, 133.83551854073164 61.78737965657059, 131.80333135395404 62.76838671544139 M132.129 62.8496 C130.136725802321 64.26160383636281, 129.25038506915047 64.62487296270653, 128.274175929565 65.44359603127762 M132.39758280720187 62.81028644253537 C130.10837506108638 63.7129737006003, 128.76510167726036 64.89026303491536, 128.10155776860472 66.03234831834975 M127.992 65.7293 C127.37903345348315 66.36963308438584, 126.41581638898327 66.95131261188314, 124.83039860834555 67.95762344748304 M128.12768821074442 65.93492084345147 C127.2810432558274 66.26480204392615, 126.9066623595273 67.23715674288813, 124.71029438280222 68.14655224551502" stroke="white" stroke-width="6" fill="none" stroke-linecap="round" stroke-linejoin="round"/>
<path d="M0 38.0257 C0.3534169296164811 38.15428951715752, 6.879272710880786 37.97773692642972, 16.186513486761598 37.70361946918293 M0.17447568895295262 37.94168144797608 C0.36029787416931236 37.754364026879706, 6.655931510263644 38.174641936367195, 16.18804654150363 37.81570492175165 M16.4865 37.9526 C23.320935762877017 38.14640983650013, 28.54301769816354 37.50930805219934, 34.54960033103898 37.293779582684486 M16.312387714046984 38.17844476200863 C23.267795595315658 38.16738148210589, 28.215322733340226 37.62566106605474, 34.45958295676466 37.0551059869403 M34.7442 37.2144 C40.136781390113384 37.22218216313645, 50.93619675969556 37.04418726436422, 56.97273872026876 37.334366093128175 M34.83863812491372 37.03712771028802 C40.46640113441702 36.716859443962015, 50.81321949043628 37.14842284958903, 56.89089880985376 36.790050450604596 M56.7882 37.0658 C62.69921742948964 37.06533889452741, 67.94077773239091 36.853520241635294, 74.48746305386499 36.72817311672494 M56.75618397721723 37.22036425277516 C62.82514455861207 37.30378876327816, 67.57439220025297 36.95749841123764, 74.33210256634707 36.332080140137116 M74.3654 36.6225 C77.15367203041986 36.545980396883934, 83.27273798441365 36.33144563147351, 91.42797726249174 36.213437738435715 M74.60417685787155 36.62020631818101 C77.39119214597699 36.839478454946914, 83.27749874242897 36.12799578933064, 91.82303765275832 36.19353629699293 M91.4991 36.1791 C97.59174287356808 36.05195000516698, 103.30699941517786 36.491770050089805, 107.95777980806307 36.368215011971444 M91.31818788504079 36.37039880396649 C97.89619513552543 36.46708694792334, 103.01236320754047 36.177391186260614, 108.21225120653864 35.94709082668964 M108 36.1791 C109.1812221708484 36.40240902308747, 110.20595345534757 36.167743082445114, 115.41908868374303 35.90895295979306 M108.15683270813898 36.450754576342554 C109.20865847720859 36.370353335225026, 110.18584464710112 36.29546021848265, 115.54376282607672 35.8744775488073 M115.5 36.1791 C120.41182166542485 35.81331172310636, 133.91848606683686 35.75573228225037, 144.29626641394572 35.3684675731115 M115.25119650783017 36.38572947027013 C120.7670095819151 35.909228623932044, 134.17320582356209 35.923109166514315, 143.7828333206987 35.6096234469885" stroke="white" stroke-width="6" fill="none" stroke-linecap="round" stroke-linejoin="round"/>
</g>
</svg>
