<svg width="150" height="128" viewBox="0 0 150 128" fill="none" xmlns="http://www.w3.org/2000/svg">
<g id="checkmark">
<path d="M49.3306 126.848 C49.59878771846592 125.43235806863011, 51.24383084352314 122.04114770571888, 51.8178539470464 119.45607787673175 M49.12850275581181 126.81192579190433 C49.58131149667725 125.16765610751882, 50.99546604105458 122.18376774546877, 51.958986166014526 119.34941968700663 M52.1178 119.552 C53.26604305150807 117.72543934600056, 53.72377079265416 115.52383220879734, 55.437701324155924 112.92451833073794 M52.32135085618794 119.55537904803455 C53.00848238126263 117.67432592842356, 53.7479909333609 115.25424426421897, 55.212631827058644 112.61482394776121 M55.3161 112.907 C56.97612556045353 109.56132865254581, 58.780387038782244 105.94774905745685, 60.081054881075026 103.3922643725127 M55.39385249965489 113.09791084115207 C57.04960453766808 109.47503777584805, 59.023477961745115 105.7196913983561, 60.308695239415016 103.15000180241839 M60.2429 103.218 C61.12666971795857 100.97735557810962, 63.07101092956364 98.52028096654118, 63.87825221545994 96.93909246689975 M60.41483590886891 102.93625701110065 C61.07537823444828 101.19615505311265, 62.85046880101189 98.80119364495054, 63.901810265388335 96.68972056054845 M63.69 96.8164 C64.56068812167942 94.54342158753573, 67.41035193765461 92.40348252589405, 68.95490904996694 89.84335095374286 M63.74510743148625 97.10722527272404 C64.95576858390793 94.38241381978764, 67.47439496971593 92.23468315732255, 69.2001506110333 89.71874518797173 M68.9394 90.006 C70.38037149427235 88.00890002066791, 72.1057976607114 85.39038020035923, 75.13971923225225 82.15096004788577 M69.11575154016316 89.87119521586597 C70.35318054210171 88.33444779169336, 72.2622528301619 85.46786474504248, 74.82260482615456 82.40146330675856 M75.0086 82.2945 C78.44328868339359 78.98413609234989, 79.14151382139028 76.08957232978047, 80.81545473497212 73.65631183917225 M74.7359308325559 82.48111830537022 C78.5080339088343 78.72091334090008, 79.1960785884045 75.9554408739306, 80.66915130430684 73.6534101952292 M80.8391 73.8369 C82.72438666169941 70.54994689242541, 87.00824426734745 67.2199291290015, 90.23176565578282 64.48737029244602 M80.7438860313207 73.76341788108051 C82.81013832766041 71.06861449572816, 87.38212329424843 67.15443666605726, 90.11303328279482 64.716993787954 M89.9467 64.4831 C92.04129052684605 62.01522138573825, 94.56581097123922 58.48229268786609, 95.5257802173406 56.38317124755084 M89.91973598411381 64.3030891578406 C91.99336828588471 61.85072794074789, 94.64272784124837 58.68652489974276, 95.66073384267315 56.76961967575326 M95.7796 56.5179 C96.83760350148975 54.65912041213215, 99.76451403072178 52.48317697121799, 102.08020476730168 49.71532241933048 M95.7060776635915 56.521199225494264 C96.92833811456188 54.50962801677957, 99.87709796670899 52.1323510095574, 102.30945090874657 49.64581610569731 M102.014 49.545 C104.26650693328678 46.68937668645084, 106.71883166845143 44.041167818900945, 111.01872377832234 38.94980339762866 M102.16608616741001 49.29638704888523 C104.21537698849663 47.23581172089354, 106.48437925168498 43.838558086321505, 110.56187224956975 38.87965898110643 M110.787 39.2113 C113.02936029489338 36.864194798538094, 115.0527202320844 34.4403229457587, 118.11189984805883 30.650065647289157 M110.6789147182256 39.426663467857246 C112.68250392624363 36.73042370641008, 114.74833212098106 34.481811877105386, 118.58145047744736 30.938496861550956 M118.34 30.6725 C120.6596011839658 28.103551213237644, 124.13481419427693 24.175671941635013, 128.07997369916737 20.477732508155704 M118.2455946636945 30.63251119725406 C120.97870279010758 28.22718128289953, 123.62190684315189 24.444925785229355, 127.74457804843411 20.8442759628512 M127.859 20.6563 C130.3898453231603 18.40249427039325, 132.6990261526853 16.23631627137363, 134.90376417930423 13.864999195072055 M127.59183547647297 20.757584826919437 C130.16039728614317 18.62629941618219, 132.87721853050218 16.370585870263724, 134.6008622623347 13.526565157077462 M134.923 13.5973 C137.56128656013308 10.934644184848667, 139.6443468299657 8.612299274818302, 142.37416826112567 7.514522797881961 M134.67892475421726 13.441110821697116 C137.73022596415504 11.118615728328377, 139.89472213908658 8.49884584802881, 142.61200026270373 7.413070972550064 M142.391 7.59939 C143.33819686754046 7.633163046447635, 143.64534507377445 7.309216166812777, 144.03266104228794 6.799402281429171 M142.6532282195836 7.41777752143085 C142.93091721769792 7.527185497658402, 143.54308746870979 6.862362090594917, 144.261654036846 6.390242593839317 M144.28 6.69823 C144.71042634303868 6.640304820033908, 145.49066785676777 5.9054040372008085, 145.9167957454473 5.547868485557437 M144.18668972022832 6.717715140964389 C145.15716428407654 6.317456658742577, 145.41707416292653 6.184208626282364, 145.58032541581616 5.728586861765534" stroke="white" stroke-width="6" fill="none" stroke-linecap="round" stroke-linejoin="round"/>
<path d="M23.2316 63.3234 C21.707387718465924 63.5377580686301, 18.11283084352314 64.40654770571888, 15.060053947046399 65.60347787673174 M23.029502755811812 63.28732579190433 C21.689911496677247 63.27305610751882, 17.864466041054577 64.54916774546876, 15.201186166014521 65.49681968700662 M15.36 65.6994 C13.444043051508068 66.98933934600055, 10.409270792654157 69.21563220879735, 8.178811324155927 71.53991833073795 M15.56355085618794 65.70277904803454 C13.18648238126263 66.93822592842355, 10.433490933360906 68.94604426421897, 7.953741827058643 71.23022394776122 M8.05721 71.5224 C5.9405455604535335 73.29062865254582, 3.814867038782239 75.22014905745685, 2.9636248810750248 77.3597643725127 M8.134962499654888 71.71331084115208 C6.014024537668079 73.20433777584806, 4.057957961745113 74.99209139835611, 3.19126523941502 77.11750180241839 M3.12547 77.1855 C2.76031971795857 77.72305557810962, 3.3288709295636414 78.14328096654118, 3.4737622154599426 78.95039246689974 M3.297405908868909 76.90375701110065 C2.7090282344482843 77.94185505311265, 3.1083288010118904 78.42419364495055, 3.4973202653883395 78.70102056054844 M3.28551 78.8277 C4.148618121679425 80.82482158753574, 7.658381937654614 81.22528252589404, 9.451539049966932 82.44205095374285 M3.340617431486249 79.11852527272403 C4.543698583907932 80.66381381978765, 7.722424969715923 81.05648315732255, 9.696780611033292 82.31744518797173 M9.43603 82.6047 C11.558071494272353 84.1359000206679, 13.181097660711409 85.69568020035923, 16.45381923225224 87.87056004788577 M9.61238154016316 82.46989521586596 C11.530880542101713 84.46144779169336, 13.3375528301619 85.77316474504248, 16.13670482615456 88.12106330675856 M16.3227 88.0141 C22.0316886833936 92.70943609234989, 23.161613821390272 95.27487232978046, 24.842854734972118 97.60341183917225 M16.05003083255589 88.20071830537022 C22.09643390883431 92.44621334090009, 23.216178588404507 95.1407408739306, 24.696551304306833 97.6005101952292 M24.8665 97.784 C26.353086661699415 100.15044689242542, 28.566044267347454 102.6457291290015, 31.306965655782818 105.17727029244602 M24.771286031320688 97.71051788108052 C26.438838327660413 100.66911449572817, 28.93992329424843 102.58023666605726, 31.1882332827948 105.406893787954 M31.0219 105.173 C32.67669052684605 106.90212138573825, 34.33121097123921 109.01599268786609, 36.75368021734059 112.74527124755085 M30.994935984113813 104.99298915784061 C32.62876828588471 106.73762794074788, 34.408127841248366 109.22022489974275, 36.88863384267315 113.13171967575326 M37.0075 112.88 C39.33590350148976 116.30452041213215, 41.49971403072178 118.11507697121799, 43.399004767301676 120.52532241933048 M36.933977663591506 112.88329922549426 C39.42663811456189 116.15502801677958, 41.61229796670899 117.7642510095574, 43.62825090874657 120.45581610569731 M43.3328 120.355 C44.99140693328679 122.16817668645083, 46.32203166845143 123.95846781890094, 46.76782377832234 124.52750339762866 M43.48488616741002 120.10638704888522 C44.940276988496635 122.71461172089353, 46.08757925168499 123.75585808632151, 46.310972249569744 124.45735898110644 M46.5361 124.789 C46.93496029489338 125.2357947985381, 47.588820232084394 125.52132294575871, 47.62529984805882 126.82556564728915 M46.4280147182256 125.00436346785725 C46.58810392624363 125.10202370641008, 47.28443212098107 125.56281187710539, 48.09485047744736 127.11399686155096" stroke="white" stroke-width="6" fill="none" stroke-linecap="round" stroke-linejoin="round"/>
<path d="M21.7539 63.3234 C21.859587718465924 64.5176580686301, 23.174730843523143 66.37634770571887, 25.9548539470464 69.77927787673175 M21.551802755811813 63.28732579190433 C21.842111496677248 64.25295610751881, 22.926366041054578 66.51896774546876, 26.095986166014523 69.67261968700663 M26.2548 69.8752 C28.51694305150807 72.13713934600055, 29.594170792654158 74.46493220879734, 32.12560132415592 77.28171833073795 M26.458350856187938 69.87857904803455 C28.25938238126263 72.08602592842355, 29.618390933360907 74.19534426421896, 31.90053182705864 76.97202394776122 M32.004 77.2642 C34.277325560453534 80.17282865254582, 34.98558703878224 82.43924905745685, 36.03275488107503 84.6649643725127 M32.08175249965489 77.45511084115208 C34.35080453766808 80.08653777584806, 35.22867796174511 82.2111913983561, 36.26039523941502 84.42270180241839 M36.1946 84.4907 C37.40666971795857 87.14875557810963, 39.43381092956364 89.63678096654118, 40.73105221545994 91.99999246689976 M36.36653590886891 84.20895701110065 C37.35537823444828 87.36755505311265, 39.21326880101189 89.91769364495055, 40.75461026538834 91.75062056054846 M40.5428 91.8773 C41.07998812167943 93.09152158753574, 42.463351937654615 93.86608252589406, 43.02050904996693 93.85675095374286 M40.59790743148625 92.16812527272404 C41.475068583907934 92.93051381978765, 42.52739496971592 93.69728315732256, 43.26575061103329 93.73214518797174 M43.005 94.0194 C46.52597149427235 94.85280002066791, 44.70639766071141 88.50248020035923, 45.84691923225224 86.33166004788578 M43.18135154016316 93.88459521586597 C46.49878054210171 95.17834779169337, 44.8628528301619 88.57996474504247, 45.52980482615456 86.58216330675856 M45.7158 86.4752 C46.919288683393596 84.40943609234989, 48.27541382139027 81.01387232978047, 49.46665473497212 78.82691183917224 M45.443130832555894 86.66181830537022 C46.984033908834306 84.14621334090009, 48.32997858840451 80.8797408739306, 49.32035130430683 78.82401019522919 M49.4903 79.0075 C50.64038666169942 76.22304689242542, 53.512444267347455 73.4639291290015, 56.91076565578282 70.47787029244603 M49.39508603132069 78.9340178810805 C50.726138327660415 76.74171449572816, 53.886323294248434 73.39843666605726, 56.792033282794804 70.70749378795401 M56.6257 70.4736 C58.41309052684605 68.30022138573825, 60.922310971239206 66.68629268786609, 64.0809802173406 63.038471247550845 M56.598735984113816 70.29358915784061 C58.36516828588471 68.13572794074788, 60.99922784124836 66.89052489974274, 64.21593384267315 63.424919675753266 M64.3348 63.1732 C66.58680350148975 60.74302041213215, 69.07571403072178 59.53487697121799, 71.70880476730169 57.34812241933047 M64.2612776635915 63.17649922549427 C66.67753811456188 60.59352801677957, 69.18829796670899 59.18405100955739, 71.93805090874658 57.2786161056973 M71.6426 57.1778 C75.78220693328679 53.52227668645084, 80.44243166845143 49.79276781890094, 83.69022377832233 46.98630339762866 M71.79468616741002 56.929187048885225 C75.73107698849664 54.06871172089353, 80.20797925168499 49.5901580863215, 83.23337224956974 46.91615898110643 M83.4585 47.2478 C89.75696029489337 42.59979479853809, 93.0501202320844 39.0396229457587, 95.70629984805882 36.719265647289156 M83.3504147182256 47.46316346785724 C89.41010392624362 42.46602370641008, 92.74573212098106 39.081111877105386, 96.17585047744736 37.00769686155096 M95.9344 36.7417 C100.3976011839658 33.37165121323765, 102.30981419427692 31.384871941635012, 105.18397369916737 28.684132508155702 M95.8399946636945 36.70171119725406 C100.71670279010758 33.49528128289953, 101.79690684315189 31.654125785229354, 104.8485780484341 29.050675962851198 M104.963 28.8627 C109.41584532316028 25.074094270393253, 115.12902615268528 19.68331627137363, 117.66876417930425 18.210699195072056 M104.69583547647296 28.963984826919436 C109.18639728614315 25.29789941618219, 115.30721853050217 19.817585870263724, 117.36586226233467 17.872265157077464 M117.688 17.943 C120.6182865601331 16.244444184848668, 122.90134682996572 13.704029274818302, 126.77316826112569 11.05023279788196 M117.44392475421726 17.786810821697117 C120.78722596415504 16.42841572832838, 123.15172213908659 13.59057584802881, 127.01100026270375 10.948780972550065 M126.79 11.1351 C131.14919686754047 8.633613046447634, 134.12134507377445 7.969076166812777, 138.03366104228795 6.634432281429172 M127.05222821958364 10.95348752143085 C130.74191721769793 8.527635497658402, 134.01908746870978 7.5222220905949175, 138.26265403684602 6.225272593839318 M138.281 6.53326 C139.93842634303869 5.990284820033908, 142.69266785676777 4.753104037200809, 145.4047957454473 3.994218485557437 M138.18768972022832 6.552745140964389 C140.38516428407655 5.667436658742577, 142.61907416292652 5.031908626282364, 145.06832541581616 4.174936861765534 M145.336 4.15479 C146.53290320928394 3.7564253454512357, 147.1575402766019 2.9747918508261444, 148.53870371825994 2.510994125110507 M145.5103312288076 4.297535770141483 C146.55450024434552 3.4969048024012146, 147.15140670904145 3.4813521396614613, 148.40323107441887 2.931003273399025" stroke="white" stroke-width="6" fill="none" stroke-linecap="round" stroke-linejoin="round"/>
</g>
</svg>
