<svg width="192" height="156" viewBox="0 0 192 156" fill="none" xmlns="http://www.w3.org/2000/svg">
<g id="face_confused">
<path d="M172.362 79.3491 C172.35637543693184 79.8616161372602, 171.9436616870463 79.84689541143774, 170.6621078940928 80.13475575346351 M172.25780551162362 79.57695158380866 C172.3664229933545 79.97721221503764, 171.40193208210917 80.08713549093753, 170.98937233202903 79.96643937401325 M170.962 80.0266 C170.76468610301615 79.9259786920011, 170.2393415853083 80.60006441759468, 170.12720264831185 80.7241366614759 M171.06910171237587 79.7333580960691 C170.89456476252528 79.77875185684711, 170.3327818667218 80.10588852843792, 170.32206365411727 80.7497478955224 M170.184 80.9891 C170.16705112090708 81.83235730509162, 169.89277407756447 82.9565981149137, 170.15630976215004 83.5528287450254 M170.03950499930977 81.07092168230413 C170.35900907533616 81.70477555169613, 169.7339559234902 82.54548279671222, 169.96659047883006 83.71330360483677 M170.18 83.5043 C170.40013943591714 83.92011115621924, 170.88522185912728 84.14876193308234, 171.4125044309199 84.4295849337995 M170.22387181773783 83.2408140222013 C170.3425564688966 84.31271010622531, 170.39913760202376 84.06558728990109, 171.4146205307767 84.57584112109691 M171.336 84.4842 C171.89577624335885 84.53814317507148, 173.30010387530925 84.3162650517881, 173.63101809993387 84.41380190748572 M171.1462148629725 84.76585054544806 C172.04093716781585 84.8611276395753, 173.38318993943187 84.6236663146451, 174.07650122206658 84.20959037594348 M173.9 84.4391 C174.8549429885447 84.02920004133581, 174.69699532142283 83.81746040071845, 174.79423846450447 83.63212009577155 M173.95270308032633 84.46949043173194 C174.8455610842034 84.63529558338671, 175.0549056603238 83.92742949008495, 174.8050096523091 83.48812661351711 M174.832 83.6192 C175.0407773667872 83.50227218469976, 174.96662764278054 82.95714465956091, 174.89470946994425 82.2989236783445 M174.58666166511176 83.69243661074043 C175.12526781766863 82.93082668180018, 175.120757176809 82.7338817478612, 174.64710260861366 82.33812039045841 M174.642 82.3601 C174.25857332339885 81.74589378485084, 174.14388853469492 81.540558258003, 174.08613131156565 80.51154058489203 M174.75157206264137 82.51313576216101 C174.47507665532083 82.13822899145633, 174.24664658849687 81.45457333211452, 173.80366656558962 80.925787575908" stroke="white" stroke-width="6" fill="none" stroke-linecap="round" stroke-linejoin="round"/>
<path d="M168 43.2925 C168.18637543693185 41.8830161372602, 168.4486616870463 38.37019541143775, 168.3761078940928 37.20275575346351 M167.89580551162362 43.520351583808655 C168.1964229933545 41.998612215037646, 167.90693208210917 38.610435490937526, 168.70337233202903 37.034439374013246 M168.676 37.0946 C169.16368610301612 36.0124786920011, 169.7453415853083 35.63406441759467, 170.55420264831184 34.4059366614759 M168.78310171237587 36.801358096069094 C169.29356476252525 35.8652518568471, 169.8387818667218 35.13988852843791, 170.74906365411726 34.43154789552242 M170.611 34.6709 C172.18005112090708 33.580557305091624, 173.95777407756447 33.6463981149137, 175.76930976215004 33.2132287450254 M170.46650499930976 34.75272168230415 C172.37200907533617 33.45297555169613, 173.7989559234902 33.23528279671222, 175.57959047883006 33.37370360483676 M175.793 33.1647 C179.63213943591714 32.134911156219246, 181.4462218591273 34.227861933082345, 182.7075044309199 35.0945849337995 M175.83687181773783 32.9012140222013 C179.5745564688966 32.527510106225314, 180.96013760202376 34.14468728990108, 182.70962053077668 35.240841121096906 M182.631 35.1492 C184.02277624335886 35.83524317507148, 185.53010387530924 35.94806505178809, 186.33601809993385 36.91510190748572 M182.4412148629725 35.43085054544807 C184.16793716781586 36.1582276395753, 185.61318993943186 36.25546631464511, 186.78150122206657 36.71089037594348 M186.605 36.9404 C188.1269429885447 37.45690004133582, 188.07299532142284 39.60166040071845, 188.55823846450448 41.553520095771546 M186.6577030803263 36.970790431731935 C188.1175610842034 38.06299558338672, 188.43090566032382 39.711629490084945, 188.56900965230912 41.4095266135171 M188.596 41.5406 C189.39277736678721 44.35827218469978, 189.11562764278054 46.29574465956092, 188.41670946994424 47.684623678344494 M188.35066166511177 41.61383661074042 C189.47726781766863 43.78682668180019, 189.269757176809 46.072481747861204, 188.16910260861366 47.72382039045841 M188.164 47.7458 C187.18757332339885 49.108893784850835, 186.45588853469494 50.607558258002996, 185.72113131156564 51.47874058489204 M188.27357206264136 47.89883576216102 C187.40407665532084 49.50122899145633, 186.55864658849688 50.52157333211452, 185.4386665655896 51.89298757590801 M185.451 51.7702 C184.30278105369212 53.018542771476504, 182.5608219424784 54.34938537573218, 181.22036043468117 55.04874249510169 M185.69707196822762 51.71017831568122 C184.25193657176942 52.73455588149577, 182.66965568249674 54.1128497994855, 181.5352676853463 55.17663935150653 M181.428 55.0182 C180.26900700297952 55.53634082426429, 179.16162806144357 56.74355394243598, 178.25540953460336 57.81974483866095 M181.580955327183 54.72479845098853 C180.49547622912377 55.88235603355915, 179.34179593341798 56.6869020191148, 178.66890181749315 57.63573221139461 M178.423 57.7791 C177.2550138665736 58.76515337290168, 176.10866333690285 59.800935637801885, 174.8554475566447 60.56130679525733 M178.42717233482003 57.58187409777045 C177.10775397699328 59.213023441787065, 175.59475850336997 60.04071617264301, 174.58674449913948 60.46601796221286 M174.692 60.7843 C173.27472058978677 61.442289597076176, 172.83344046416877 63.538245891517406, 171.67479969611762 64.77013129457832 M174.7758294364512 60.91502693571449 C173.22600785248724 61.819747412820156, 172.8696642419621 62.97622375421077, 171.9689009548947 64.70199372310192 M171.831 64.515 C171.8252023679316 65.29060242647529, 171.59462838855384 65.69144388327003, 171.14894739833474 67.0210650163114 M171.942189327389 64.73502239450812 C171.81840558021514 64.89286256579906, 171.21381368630378 66.18495157045871, 171.12315609686823 67.10915192570239 M171.007 67.0782 C171.02369064632057 67.5083885407865, 170.92205230537056 68.48363254274726, 170.87852835860846 70.5703983901441 M170.77267095294596 66.98076965383886 C170.6097945722863 67.91099883236438, 171.23343706100434 68.70717174052744, 170.31772452466933 70.53853031415491" stroke="white" stroke-width="6" fill="none" stroke-linecap="round" stroke-linejoin="round"/>
<path d="M36.8394 117.452 C37.41267543693185 116.2877161372602, 38.52636168704629 113.21029541143774, 38.2316078940928 111.3151557534635 M36.73520551162362 117.67985158380866 C37.422722993354505 116.40331221503764, 37.98463208210915 113.45053549093753, 38.55887233202905 111.14683937401324 M38.5315 111.207 C38.97648610301614 108.7468786920011, 40.77984158530832 107.58466441759468, 41.59920264831185 105.5330366614759 M38.63860171237588 110.91375809606909 C39.10636476252527 108.59965185684712, 40.87328186672181 107.09048852843792, 41.79406365411729 105.55864789552241 M41.656 105.798 C42.62575112090707 104.3606573050916, 44.50437407756448 104.0484981149137, 46.44700976215005 103.4985287450254 M41.51150499930978 105.87982168230414 C42.81770907533616 104.23307555169612, 44.345555923490224 103.63738279671222, 46.25729047883004 103.65900360483677 M46.4707 103.45 C48.055039435917145 102.79771115621924, 49.61542185912728 103.40436193308234, 50.26180443091988 104.23538493379951 M46.51457181773782 103.18651402220131 C47.99745646889657 103.19031010622531, 49.12933760202378 103.32118728990109, 50.26392053077668 104.38164112109692 M50.1853 104.29 C52.03287624335885 105.79104317507148, 52.81860387530923 107.4071650517881, 53.37101809993386 109.53870190748572 M49.9955148629725 104.57165054544807 C52.178037167815866 106.1140276395753, 52.90168993943185 107.71456631464511, 53.816501222066584 109.33449037594347 M53.64 109.564 C54.7467429885447 111.04200004133583, 55.896995321422814 112.30716040071844, 58.08873846450448 113.42392009577155 M53.69270308032632 109.59439043173194 C54.73736108420342 111.64809558338672, 56.2549056603238 112.41712949008495, 58.099509652309116 113.2799266135171 M58.1265 113.411 C60.6062773667872 114.67227218469976, 62.80812764278055 113.62094465956092, 63.66090946994424 112.96482367834449 M57.88116166511178 113.48423661074042 C60.69076781766862 114.10082668180019, 62.96225717680902 113.39768174786121, 63.41330260861367 113.00402039045841 M63.4082 113.026 C64.99297332339883 111.89389378485085, 65.3329885346949 109.50345825800301, 66.09353131156564 107.13854058489204 M63.517772062641384 113.179035762161 C65.20947665532083 112.28622899145634, 65.43574658849687 109.41747333211453, 65.81106656558961 107.55278757590801 M65.8234 107.43 C66.0777810536921 106.64524277147652, 66.32442194247842 105.84398537573219, 66.84866043468116 104.98254249510168 M66.06947196822763 107.36997831568122 C66.02693657176941 106.36125588149578, 66.43325568249674 105.60744979948551, 67.1635676853463 105.11043935150653 M67.0563 104.952 C67.78820700297952 103.82804082426429, 68.69702806144356 103.62715394243598, 69.94480953460335 103.49064483866096 M67.209255327183 104.65859845098853 C68.01467622912378 104.17405603355914, 68.87719593341798 103.57050201911478, 70.35830181749313 103.30663221139461 M70.1124 103.45 C73.81401386657357 102.65935337290168, 76.03076333690285 104.52193563780189, 77.83604755664469 106.21400679525733 M70.11657233482002 103.25277409777046 C73.66675397699326 103.10722344178706, 75.51685850336999 104.761716172643, 77.5673444991395 106.11871796221286 M77.6726 106.437 C78.86392058978676 107.45458959707616, 79.73754046416879 109.9146458915174, 80.77169969611764 112.03113129457832 M77.7564294364512 106.56772693571448 C78.81520785248726 107.83204741282016, 79.77376424196214 109.35262375421077, 81.06580095489471 111.96299372310192 M80.9279 111.776 C83.2948023679316 115.31950242647528, 85.84682838855386 115.18494388327002, 88.10044739833474 115.7658650163114 M81.039089327389 111.99602239450812 C83.28800558021516 114.92176256579906, 85.4660136863038 115.6784515704587, 88.07465609686822 115.85395192570239 M87.9585 115.823 C90.04689064632059 115.9001885407865, 91.56215230537057 115.34983254274727, 92.58922835860848 115.34639839014412 M87.72417095294595 115.72556965383886 C89.63299457228631 116.30279883236439, 91.87353706100434 115.57337174052745, 92.02842452466935 115.31453031415492 M92.3277 115.111 C93.83937312026619 113.95208836969734, 94.14339365993142 112.2936585496366, 95.98233652225136 109.97126559576391 M92.13954950843453 115.09862164339424 C94.1322519283101 114.27503145665675, 94.68914427817315 112.71175169605762, 95.81300052540749 109.81336194510013 M95.716 109.841 C96.84999373508096 108.42698609289528, 97.07909014754891 106.52211233362556, 97.60622208457589 104.46334456285835 M95.94045643916725 109.77777504286169 C96.6804344353959 108.17003099531681, 96.9195749374196 106.27340418118985, 98.10920807369202 104.29002518767864 M97.8009 104.561 C98.69475268607735 103.14800964006781, 100.13133571353555 101.46122807440162, 101.86859149089456 100.62885697111489 M97.91427944045662 104.29997028192878 C98.94322856815307 103.14731331748516, 99.93914832585304 101.37383725256473, 101.84065083163232 100.34529372353107 M102.031 100.65 C102.6178064185679 100.03463069090247, 103.51108055320383 100.12338370165229, 104.92440743651986 100.524368250221 M102.07966245761514 100.63549154028297 C102.61600048869103 100.16058960480242, 103.45381341808289 100.49150427932292, 104.60846214883775 100.71938654679805 M104.767 100.71 C106.66926762786508 101.38966467508675, 107.38353111186623 103.46630089506507, 107.8831888667643 104.77078757986426 M104.95250568595529 100.85496674761175 C106.62034604661912 101.10601635140927, 107.4852988762185 103.03805394310504, 107.83735506241769 105.1272179641202 M107.964 105.005 C108.51040525928138 106.85327077230811, 108.99245008483528 108.65904508432746, 110.2675109769404 110.24836788973212 M108.15326557078957 104.84336758360266 C108.86804077904671 106.53744536394625, 109.21416304986923 108.19558023805172, 110.58287229698152 110.54464759463818 M110.305 110.281 C111.26754450812936 111.6769519122541, 113.57875641742349 112.58902544912696, 115.05410521236061 113.21670585951209 M110.06545480743051 110.39500947794319 C111.3536899105832 111.82167376155407, 113.7371439761445 112.58487247080356, 115.4912362646386 113.55973036999255 M115.317 113.411 C116.68016681972146 114.30455477461219, 118.45252530494332 113.44099491915107, 119.45685926833748 112.49674191889167 M115.07674234119057 113.33355161032081 C116.89157835333795 113.86069397587329, 118.36790937965363 113.1456652605012, 119.33109906499833 112.45596653432399 M119.229 112.702 C120.0629098893702 111.8472697890699, 119.9509881927073 111.24405017408729, 120.6848170901835 109.88776024755836 M118.96195336738229 112.49399691042304 C119.59642070692033 111.73794375104458, 119.94380667250603 110.96488853878529, 120.27029248517007 110.13055164427311 M120.405 110.037 C120.6945676623881 109.4916311353147, 120.75053277602792 108.02263164362311, 120.59417887321115 106.86738877519966 M120.64106933131814 110.1396920579374 C120.42111125843972 109.17755614370853, 120.65661295431107 108.1689175497964, 120.2965779997632 106.75562656898052" stroke="white" stroke-width="6" fill="none" stroke-linecap="round" stroke-linejoin="round"/>
<path d="M52.4712 58.8315 C52.141775436931844 58.698416137260196, 49.61706168704629 59.26369541143775, 47.1612078940928 60.23915575346351 M52.367005511623624 59.059351583808656 C52.1518229933545 58.81401221503764, 49.07533208210915 59.50393549093753, 47.48847233202905 60.07083937401325 M47.4611 60.131 C46.01098610301614 60.645878692001105, 45.867741585308316 63.66616441759467, 45.706302648311855 65.1379366614759 M47.56820171237588 59.837758096069095 C46.14086476252526 60.498651856847104, 45.96118186672181 63.17198852843791, 45.90116365411729 65.16354789552241 M45.7631 65.4029 C45.69555112090707 67.60665730509162, 45.55147407756448 69.9076981149137, 46.51710976215005 71.3799287450254 M45.61860499930978 65.48472168230414 C45.88750907533616 67.47907555169613, 45.392655923490224 69.49658279671222, 46.32739047883004 71.54040360483677 M46.5408 71.3314 C47.46303943591714 72.62331115621924, 49.22042185912728 74.21926193308234, 51.363604430919885 75.1242849337995 M46.584671817737814 71.06791402220131 C47.40545646889657 73.01591010622532, 48.73433760202378 74.13608728990108, 51.365720530776684 75.27054112109691 M51.2871 75.1789 C53.226076243358854 75.78354317507149, 55.421003875309225 74.72056505178809, 55.97351809993386 74.37780190748572 M51.0973148629725 75.46055054544806 C53.37123716781587 76.1065276395753, 55.50408993943184 75.0279663146451, 56.41900122206658 74.17359037594348 M56.2425 74.4031 C58.1374429885447 73.09190004133582, 57.983495321422815 70.50656040071844, 58.23103846450448 66.41632009577155 M56.29520308032632 74.43349043173194 C58.128061084203416 73.69799558338671, 58.3414056603238 70.61652949008494, 58.241809652309115 66.27232661351711 M58.2688 66.4034 C58.52847736678719 64.50047218469977, 56.82462764278055 62.95334465956092, 55.725309469944236 61.05652367834449 M58.02346166511178 66.47663661074043 C58.61296781766862 63.929026681800195, 56.97875717680902 62.730081747861206, 55.47770260861367 61.0957203904584 M55.4726 61.1177 C54.84437332339883 60.43739378485083, 54.405788534694906 60.00405825800299, 54.37683131156563 59.45844058489203 M55.58217206264138 61.27073576216102 C55.060876655320826 60.82972899145633, 54.50854658849686 59.91807333211452, 54.0943665655896 59.872687575908 M54.1067 59.7499 C53.7642810536921 59.49344277147651, 53.17742194247842 59.20928537573218, 52.65436043468118 58.86204249510169 M54.35277196822762 59.68987831568121 C53.713436571769414 59.20945588149578, 53.28625568249672 58.9727497994855, 52.96926768534631 58.98993935150653" stroke="white" stroke-width="6" fill="none" stroke-linecap="round" stroke-linejoin="round"/>
<path d="M102.494 52.9695 C101.51237543693185 53.2271161372602, 100.02336168704629 53.79239541143775, 97.90160789409279 54.76785575346351 M102.38980551162362 53.197351583808654 C101.5224229933545 53.34271221503764, 99.48163208210916 54.03263549093753, 98.22887233202904 54.59953937401325 M98.2015 54.6597 C97.45038610301613 54.966078692001105, 96.54364158530832 56.248664417594675, 95.92880264831186 56.282336661475895 M98.30860171237588 54.366458096069096 C97.58026476252526 54.818851856847104, 96.63708186672181 55.75448852843791, 96.1236636541173 56.30794789552242 M95.9856 56.5473 C93.05725112090707 59.463057305091624, 95.70367407756449 67.04709811491371, 96.60290976215005 67.47382874502539 M95.84110499930978 56.629121682304145 C93.24920907533615 59.33547555169613, 95.54485592349023 66.63598279671223, 96.41319047883003 67.63430360483676 M96.6266 67.4253 C98.35823943591714 68.25571115621923, 100.41622185912728 69.01376193308234, 103.40550443091988 69.2641849337995 M96.67047181773782 67.1618140222013 C98.30065646889656 68.64831010622531, 99.93013760202378 68.93058728990108, 103.40762053077667 69.41044112109691 M103.329 69.3188 C105.14977624335884 69.31644317507148, 107.13210387530924 66.9122650517881, 107.95501809993387 65.06690190748573 M103.1392148629725 69.60045054544806 C105.29493716781586 69.6394276395753, 107.21518993943185 67.21966631464511, 108.40050122206658 64.86269037594349 M108.224 65.0922 C109.0059429885447 63.914000041335825, 108.40199532142282 62.944460400718455, 108.57823846450448 62.367520095771546 M108.27670308032633 65.12259043173195 C108.99656108420342 64.52009558338672, 108.75990566032381 63.05442949008495, 108.58900965230912 62.2235266135171 M108.616 62.3546 C108.2567773667872 61.06077218469977, 107.49662764278054 59.82304465956092, 106.92070946994424 58.71172367834449 M108.37066166511178 62.42783661074042 C108.34126781766862 60.489326681800186, 107.65075717680901 59.59978174786121, 106.67310260861368 58.750920390458404 M106.668 58.7729 C106.03957332339883 58.092593784850834, 105.60188853469491 57.65925825800299, 105.50013131156564 56.97684058489204 M106.77757206264138 58.92593576216102 C106.25607665532083 58.48492899145633, 105.70464658849687 57.57327333211452, 105.21766656558961 57.39108757590801" stroke="white" stroke-width="6" fill="none" stroke-linecap="round" stroke-linejoin="round"/>
<path d="M70.8393 11.5442 C67.93047543693186 11.282116137260198, 60.94286168704629 11.32759541143775, 58.17240789409279 11.781355753463506 M70.73510551162362 11.772051583808661 C67.9405229933545 11.397712215037643, 60.40113208210915 11.567835490937531, 58.49967233202904 11.613039374013244 M58.4723 11.6732 C56.41578610301614 11.787578692001103, 53.691941585308314 13.260264417594671, 51.70540264831185 13.295836661475898 M58.579401712375876 11.379958096069098 C56.54566476252526 11.640351856847106, 53.785381866721806 12.766088528437914, 51.90026365411729 13.321447895522416 M51.7622 13.5608 C50.01635112090707 14.273457305091618, 47.77937407756448 15.327998114913703, 46.20080976215005 15.954128745025397 M51.61770499930978 13.642621682304144 C50.20830907533616 14.14587555169612, 47.62055592349023 14.91688279671222, 46.01109047883004 16.114603604836763 M46.2245 15.9056 C44.60163943591714 16.351811156219245, 43.37422185912728 17.685461933082344, 41.935704430919884 19.299784933799504 M46.268371817737815 15.6421140222013 C44.54405646889657 16.744410106225313, 42.88813760202378 17.602287289901078, 41.93782053077668 19.446041121096908 M41.8592 19.3544 C40.33577624335885 20.878443175071478, 38.89030387530923 21.563365051788093, 36.83801809993386 23.366201907485724 M41.6694148629725 19.636050545448064 C40.48093716781587 21.201427639575304, 38.97338993943185 21.870766314645113, 37.28350122206658 23.161990375943482 M37.107 23.3915 C35.1965429885447 25.131200041335823, 32.987995321422815 26.197160400718452, 31.27173846450448 27.640720095771552 M37.15970308032632 23.42189043173194 C35.18716108420342 25.73729558338672, 33.3459056603238 26.307129490084947, 31.28250965230912 27.496726613517104 M31.3095 27.6278 C29.557577366787193 29.243372184699776, 28.29622764278054 30.500944659560922, 26.61260946994424 32.12332367834449 M31.06416166511178 27.701036610740424 C29.642067817668615 28.671926681800187, 28.45035717680901 30.27768174786121, 26.36500260861367 32.162520390458404 M26.3599 32.1845 C24.670273323398828 33.523493784850835, 23.790488534694912 35.234958258003, 23.36883131156564 36.64914058489204 M26.469472062641383 32.33753576216102 C24.886776655320823 33.91582899145633, 23.893246588496865 35.14897333211452, 23.086366565589607 37.06338757590801 M23.0987 36.9406 C22.3333810536921 38.699442771476505, 20.74102194247842 40.43508537573218, 19.635660434681178 42.11614249510169 M23.344771968227626 36.88057831568122 C22.282536571769416 38.415455881495774, 20.849855682496727 40.1985497994855, 19.950567685346304 42.24403935150653 M19.8433 42.0856 C18.59610700297952 44.06224082426429, 16.989728061443568 45.51855394243598, 16.027509534603357 47.14224483866095 M19.996255327183007 41.79219845098853 C18.822576229123772 44.40825603355915, 17.169895933417976 45.461902019114795, 16.44100181749314 46.95823221139461 M16.1951 47.1016 C15.203413866573573 48.33345337290168, 15.338863336902856 50.06693563780188, 14.015647556644678 51.56820679525733 M16.199272334820034 46.90437409777045 C15.056153976993263 48.781323441787066, 14.824958503369986 50.30671617264301, 13.746944499139488 51.47291796221286 M13.8522 51.7912 C12.304020589786768 53.31968959707618, 12.136140464168786 56.3747458915174, 10.958399696117638 57.908431294578314 M13.936029436451197 51.92192693571449 C12.255307852487265 53.69714741282016, 12.172364241962134 55.812723754210765, 11.252500954894721 57.840293723101915 M11.1146 57.6533 C10.533102367931605 59.363302426475286, 9.913538388553857 60.85564388327003, 8.91176739833474 62.67656501631141 M11.225789327389002 57.87332239450812 C10.526305580215155 58.965562565799054, 9.532723686303793 61.34915157045871, 8.885976096868216 62.764651925702395 M8.76982 62.7337 C8.065060646320582 64.0834885407865, 7.28513230537057 65.96783254274726, 7.335248358608484 68.43839839014412 M8.535490952945947 62.63626965383887 C7.651164572286308 64.48609883236439, 7.596517061004341 66.19137174052744, 6.774444524669349 68.40653031415492 M7.07372 68.203 C6.918973120266199 70.05098836969734, 5.696483659931421 73.43945854963661, 5.843276522251367 76.21586559576392 M6.885569508434534 68.19062164339424 C7.211851928310097 70.37393145665675, 6.242234278173148 73.85755169605763, 5.673940525407493 76.05796194510013 M5.57694 76.0856 C5.537943735080958 78.40858609289528, 4.724140147548914 80.44721233362556, 3.883532084575892 82.62764456285835 M5.80139643916726 76.0223750428617 C5.368384435395897 78.15163099531681, 4.564624937419594 80.19850418118985, 4.386518073692024 82.45432518767863 M4.07821 82.7253 C3.6075626860773564 85.61100964006782, 3.610305713535547 89.04932807440161, 3.134191490894556 91.82555697111488 M4.191589440456629 82.46427028192878 C3.8560385681530835 85.61031331748516, 3.4181183258530496 88.96193725256472, 3.1062508316323165 91.54199372353106 M3.2966 91.8467 C2.7749964185678957 94.10723069090248, 2.5584405532038215 100.58838370165229, 3.385617436519861 104.75536825022101 M3.3452624576151373 91.83219154028296 C2.7731904886910317 94.23318960480243, 2.5011734180828933 100.95650427932293, 3.069672148837745 104.95038654679806 M3.22821 104.941 C3.536997627865076 106.88766467508674, 3.9534311118662355 108.93830089506507, 4.708658866764306 110.82678757986427 M3.4137156859552857 105.08596674761176 C3.488076046619117 106.60401635140926, 4.055198876218498 108.51005394310504, 4.662825062417686 111.18321796412022 M4.78947 111.061 C5.405195259281396 113.03327077230811, 6.601980084835291 114.91204508432746, 7.163250976940393 116.63036788973211 M4.978735570789575 110.89936758360267 C5.762830779046714 112.71744536394625, 6.82369304986924 114.44858023805172, 7.478612296981513 116.92664759463817 M7.20074 116.663 C7.641394508129359 118.5069519122541, 8.718306417423486 120.27202544912697, 8.89186521236062 121.61570585951209 M6.9611948074305054 116.77700947794318 C7.727539910583198 118.65167376155406, 8.876693976144493 120.26787247080357, 9.328996264638603 121.95873036999255 M9.15476 121.81 C9.70156681972146 124.0505547746122, 10.851925304943322 125.80599491915106, 12.376159268337489 127.01074191889167 M8.914502341190577 121.73255161032081 C9.912978353337945 123.6066939758733, 10.767309379653632 125.5106652605012, 12.25039906499833 126.96996653432399 M12.1483 127.216 C13.761509889370203 128.80526978906988, 14.6874881927073 130.90605017408728, 16.078217090183497 132.14776024755835 M11.881253367382289 127.00799691042303 C13.295020706920326 128.69594375104458, 14.680306672506035 130.6268885387853, 15.663692485170067 132.3905516442731 M15.7984 132.297 C17.001767662388083 134.1786311353147, 18.743232776027916 135.08963164362314, 20.476478873211146 136.56338877519966 M16.034469331318142 132.3996920579374 C16.728311258439717 133.8645561437085, 18.64931295431107 135.23591754979643, 20.17887799976319 136.45162656898052 M20.3533 136.596 C22.19859033408761 138.0925167430341, 23.680903000217675 139.06152350744605, 25.532001062732938 140.40559918150308 M20.113527928310635 136.55832748255133 C21.7659739825055 137.63860952300578, 23.565485012178122 139.1098228501752, 25.56009677088708 140.43352749008687 M25.4337 140.115 C26.896684349781275 141.00114829191565, 28.504799060589075 141.4378536952436, 30.170496354061367 142.3887068961561 M25.490423103672267 140.3959373639524 C27.071112541227045 140.93437757057697, 28.615309320716563 141.5786203090623, 30.1064196481511 142.31203590173274 M30.1898 142.395 C31.60961240478158 143.3490912116468, 33.50217740245462 143.92409388670325, 35.30983369250894 144.1683710988462 M30.251805052715543 142.6408996318281 C31.95596028421372 142.9675792805627, 33.24975204203576 144.13952110809834, 35.22809716866463 144.26462861055882 M35.2038 144.416 C37.269793444401024 145.16425468191503, 39.274150721126794 145.9560595115125, 41.227438273388145 146.78059471926093 M35.226480220752954 144.21293596586585 C37.09063024857491 144.8176289596036, 39.3839090257451 146.2191817414239, 41.24270955703706 146.78072773570568 M41.1323 146.761 C43.02440266395212 147.1208916324079, 44.94638796191812 148.4799097493589, 47.2312915420115 148.93972443708776 M41.35281130309701 146.46211179575323 C42.97776515891999 147.1418862268403, 45.30645580895394 147.94495401567966, 47.21491672537773 148.86095070881396 M47.2523 149.039 C49.15487150874734 149.86159874281287, 51.11031432014108 150.2701475299299, 53.044631193691494 150.89745068201424 M47.5497172450602 148.86683630117773 C49.08078742735833 149.86890601391346, 51.00959761627168 150.07413505000622, 53.01990827329606 150.95736027402432 M52.9209 150.669 C54.57258767409921 151.49031644281746, 56.50271124110818 151.17761953291296, 58.412351173740625 151.81480763372778 M52.70137324195505 150.49286241182685 C54.998349153499305 151.65268856496365, 56.32741935980767 151.4932172760442, 58.75855348790139 151.81671448797732 M58.4567 151.777 C60.52139510532022 152.20432891210913, 62.78251642013192 152.0245161879957, 65.2576016774714 152.86417322191596 M58.26361073909402 151.56528680738805 C60.4655821244523 152.4759294366315, 63.0314356391713 152.57413843793424, 65.19275134380311 152.82371671981363 M64.9714 152.623 C65.48149399772286 152.99726408037543, 65.77242380252481 152.6313716748655, 71.1524891501963 153.05226912626625 M65.02051743178964 152.37054991754889 C65.40674781482666 152.78426949805765, 66.06094074147195 152.76253159231695, 70.89488050311058 152.6052656511739 M70.9155 152.949 C75.87684079661965 152.71709362730383, 85.97178358359933 153.1890639232099, 91.48417628722787 152.60216077646612 M70.75513726535439 152.67943592199686 C75.89138738673181 153.04554493088273, 85.91465864131898 153.10097510833293, 91.40264931543321 152.85370527619867 M91.3194 152.886 C97.92254819732308 153.01313298258185, 99.614402208668 151.57981461271643, 101.09848203387857 151.00825735220312 M91.2155704351008 152.72907275041936 C97.71047168977708 152.5280372292474, 99.36729300082177 151.73124266762287, 101.27144581788033 150.87307490152867 M101.312 150.934 C105.06408514514565 149.92904132589697, 106.96184237304331 148.88918917307257, 109.1011815854609 147.63331178316474 M101.15857338634133 150.67793208250404 C104.64435126107186 149.4847231997922, 107.3015771695897 148.57755326432735, 109.13438773506135 147.32735914630445 M109.197 147.484 C111.30397683539987 146.46682158693673, 112.87282302203774 145.47409678396582, 114.92210638728739 144.32242074903846 M109.15085881438851 147.4028293479383 C111.44820632522553 146.43852496165783, 113.13642418473214 145.025821205087, 114.77517247908563 144.48573794216662 M114.992 144.357 C117.53630471339821 143.31382044538856, 119.39071935096383 140.8007903750837, 122.4986441346705 138.83302467951177 M114.83319566455484 144.31292372640968 C117.50529679434746 143.05055994648487, 119.60317677085847 141.28290610904247, 122.28032714956254 138.88383653325587 M122.287 138.759 C124.0772064744532 137.16672833094, 125.59126280513406 136.12386662611365, 127.98033877292275 134.80690775427223 M122.5039091321528 138.57971814760563 C123.81621226804702 137.48539089841395, 125.58205734007807 136.39686290783433, 128.15255853360145 135.17697547621282 M127.824 134.978 C129.80997606387734 133.81957942327858, 131.80134107986092 132.50226596674324, 133.38389049735665 130.60619790300728 M127.6234806624949 134.90905929121377 C129.73272203343362 133.99027587408574, 131.50971799200028 132.13419184560328, 133.15450310581176 130.51742064017802 M133.427 130.745 C135.9100636769831 128.46675165209172, 137.95599812045694 126.94127257665993, 139.2711557532847 124.96436680540442 M133.46954795089363 130.77713758692147 C135.89152506511658 129.0594182426408, 138.32499051373452 126.5530884789899, 139.02547702830284 125.37663320679216 M139.355 125.21 C140.91607575908304 123.18096669706702, 142.4414341222346 120.45751438555122, 143.2331472360194 118.0962298911512 M139.61490494266152 125.08148721441626 C141.16400002520533 123.25321668571979, 141.92063637989014 120.69969367713482, 143.41422615068407 118.03651967019589 M143.461 118.177 C144.2197750054896 116.3042899878919, 145.1530055305064 114.05696307310463, 145.7590338908732 112.63694633993506 M143.41150183311106 118.0509861033857 C144.4249552633092 116.36051519746333, 145.22009675257655 114.08734362167866, 145.91667601006478 112.85968183702975 M145.936 112.768 C146.72208036151528 111.17113070425391, 147.27522504058481 109.28093406900764, 148.85714091315864 107.32701908144355 M145.85944506755473 112.78485593351722 C146.39737881653755 111.30285308451205, 147.53624248140306 109.03381980676204, 148.66568183105437 107.35566682643444 M148.605 107.233 C149.6330670224726 105.40724177584052, 150.49076159778238 103.77708655294775, 150.80494974818825 101.56529479536414 M148.427997341305 107.13766213449836 C149.64118840949982 105.18471496600658, 150.3991241034791 104.0835990390256, 150.88977852576227 101.90521707005054 M150.952 101.828 C151.3529664336741 99.63321988233923, 152.08944039741158 98.25612345461249, 152.6690980912745 96.62356391138435 M150.80557759967445 101.87231388601661 C151.64298145430536 99.71828077358752, 151.693721843414 98.15580343760998, 152.60193069379775 96.69612031201869 M152.515 96.3546 C152.92816629043222 94.41910545343757, 153.56724288478495 91.78179145368934, 154.0893798877299 89.61456060919166 M152.61976103797554 96.47466411775947 C152.93078505056351 94.91927575139552, 154.0976956133172 91.93545043415577, 154.3922826222703 89.72245960897952 M154.145 89.453 C154.44221053805947 86.354182668823, 154.55830675521494 82.55398097986578, 155.18474533286692 77.13426281847357 M154.02127910152078 89.72150950941443 C154.65380598538368 86.3880204560712, 154.68213501279803 82.57780277280361, 155.2129082857892 77.70816333007365 M155.187 77.3693 C155.71679937186835 73.61847945818305, 155.30592595401404 66.51912621282935, 155.12230087199808 62.73539221891761 M155.19001948562266 77.32289049066901 C155.40218073337525 73.74218075675518, 155.47130932896582 66.86001851019412, 155.31556134646385 62.72175515694171 M155.124 62.554 C154.8687892371714 56.74546750120521, 152.77555067649484 55.02700508226752, 152.72030920043588 53.04211424021125 M154.90402613559365 62.3955912412107 C155.00272545664757 56.56071783508808, 152.73441753643004 55.009201015467944, 152.28342515390366 53.28230408372432 M152.455 53.3017 C152.01719282928107 51.203162227576975, 150.92478736796977 49.74493926786781, 149.33918926349284 47.904338062041994 M152.3424992467463 53.377839690726994 C151.76468600481002 51.02623818521053, 151.05433829730003 49.73784897026569, 149.160862745218 47.8349744170621 M149.461 47.8304 C147.9341790935099 45.949822816985844, 147.5633987237513 44.3293941993177, 146.7965162564814 42.61681661409736 M149.3767952643931 47.583607518905396 C148.079487914972 45.91194361376315, 147.47637996118516 44.05670636872799, 146.68716684501618 42.29137577609569 M146.595 42.4256 C145.65607322517036 40.110152199119334, 144.229303689152 38.83377905630469, 143.15202162471414 37.10624657606482 M146.68542688384653 42.421710155433416 C145.24048641174286 40.37908123988658, 144.07303056519478 38.543812517495454, 143.18030986540765 37.0079130924657 M143.142 36.9524 C142.25835666957497 35.24299705366492, 140.81857745948435 33.9524467685163, 139.7735930635035 31.8246683776319 M143.13906305041908 36.78290677999854 C141.986716407232 35.05589349522144, 140.8227078339383 33.85975203570872, 139.55169390600176 31.820436610312758 M139.56 31.8739 C138.02566712203623 29.413447810310124, 136.5264514800608 28.32109401564002, 135.11927451816203 26.640366198486088 M139.2665289594233 31.733300322288272 C137.99164250104874 29.39096812390834, 136.6295091795251 28.419304855008424, 134.60690075390787 26.416391886277495 M134.937 26.4671 C133.6137985278666 24.70693864874244, 131.5263134461939 22.63876122736335, 129.99426618400216 21.674667968314886 M135.23680605617167 26.405237461990115 C133.1739089803025 24.618588182587924, 131.7709617015645 22.94469621953517, 129.96144188373535 21.602869789500534 M129.923 21.3847 C128.5757010823786 20.386347498649357, 126.59870730319619 19.181432583373784, 124.85792450633646 18.11364536680579 M130.11603203597664 21.23410862879157 C128.34208981960265 20.0170820404008, 126.22577218716592 19.570446685929596, 124.48650845759363 18.2395565016225 M124.712 18.1918 C122.78348123088479 17.25079603971839, 120.56333324638008 15.658036013358831, 118.63176218047738 14.727313823646305 M124.57450084415079 18.170048002380135 C122.49543868105859 16.76887337898761, 120.78457711093873 15.950622123332321, 118.53572132509203 14.639183516784012 M118.525 14.6101 C116.6764016686976 13.332849701637029, 114.03004772105812 11.762343197005988, 112.09844815173746 10.204432518523932 M118.49466267600656 14.797133512443303 C116.24063891427964 13.668931192488968, 114.5196926349923 12.271983713383973, 111.99288102333993 10.443577641625703 M111.884 10.3777 C108.61288134112954 8.518077664092779, 106.70686342254281 8.644929564002753, 104.73080761542916 7.882974381126166 M111.97012397685647 10.268186838668585 C108.95255355637521 8.395579787545502, 106.641864608936 8.397197950225175, 105.04971777694672 7.8553809952881934 M104.716 7.70457 C102.52749544349312 6.627032856773138, 100.01864929614663 6.183174294036627, 97.94092201686502 5.436686091140509 M104.53464744201302 7.635243410743476 C102.03997533195465 6.743728783297836, 99.52771856987924 6.576086640496552, 97.57374149802177 5.44586100941211 M97.8771 5.68411 C96.11647542110086 5.054921959365607, 94.3149305371821 4.503270316795111, 92.06772905135752 4.5021980782544615 M97.81125201678871 5.936112408355475 C96.23987665312737 5.225793111386597, 94.38630974243134 4.368886903338731, 92.02459178617448 4.4632704281380775 M92.0151 4.44526 C90.09570896926523 4.447555401557684, 87.7950885909617 3.7887443119657043, 81.41152266421913 3.4743645221555233 M91.89981289649606 4.421486761192083 C89.76415961950273 3.938893015952409, 87.83307303870171 3.7660211703923347, 81.75728792851419 3.5894373081067203 M81.479 3.27284 C79.94394003329873 3.276277363036871, 74.45926115279794 3.1362267092359066, 66.43315305076241 2.9847133525311946 M81.61156152644753 3.1502831489408014 C79.84160601819009 3.0410340536358955, 74.56947305829972 3.1551171857979896, 66.66017889965028 2.8094650184586647 M66.5932 3.011 C62.42646880851388 3.2445857734906673, 59.696242168003316 3.8313516882932186, 57.77672665629983 4.549976249068975 M66.86828560195565 3.0680920012891293 C62.60032732379884 3.0089770935776827, 59.77965408833474 4.23815800619632, 57.856393361692135 4.831512240834535 M57.7552 4.63675 C55.097751740223174 5.906232312606573, 53.976881831890346 6.395037178825141, 53.418006176143884 7.039738641456366 M57.92502906833291 4.655707497924566 C55.40911469843835 5.737588317418396, 54.10259010341615 6.329012000727952, 53.37098966424912 6.555692969374955 M53.259 6.85261 C52.6611015237391 7.274982410072088, 52.37858658977151 7.37547486051917, 51.19341055560708 7.700999709380865 M53.11849212089181 6.796777568534613 C53.045888991717995 6.7608492192986605, 52.27533476565331 7.116672851033509, 51.42870584443063 7.609886510720551" stroke="white" stroke-width="6" fill="none" stroke-linecap="round" stroke-linejoin="round"/>
</g>
</svg>
